<svg width="30" height="30" viewBox="0 0 30 30" fill="none" xmlns="http://www.w3.org/2000/svg">
<circle cx="15" cy="15" r="15" fill="#0094FF"/>
<path d="M15.0031 11.4106C13.0163 11.4106 11.4137 13.0132 11.4137 15C11.4137 16.9868 13.0163 18.5894 15.0031 18.5894C16.99 18.5894 18.5925 16.9868 18.5925 15C18.5925 13.0132 16.99 11.4106 15.0031 11.4106ZM15.0031 17.3336C13.7192 17.3336 12.6695 16.2871 12.6695 15C12.6695 13.7129 13.7161 12.6664 15.0031 12.6664C16.2902 12.6664 17.3367 13.7129 17.3367 15C17.3367 16.2871 16.2871 17.3336 15.0031 17.3336ZM19.5766 11.2638C19.5766 11.7292 19.2017 12.101 18.7394 12.101C18.2739 12.101 17.9022 11.7261 17.9022 11.2638C17.9022 10.8014 18.277 10.4265 18.7394 10.4265C19.2017 10.4265 19.5766 10.8014 19.5766 11.2638ZM21.9539 12.1135C21.9008 10.992 21.6446 9.99855 20.823 9.18007C20.0046 8.3616 19.0112 8.10543 17.8897 8.0492C16.7338 7.9836 13.2693 7.9836 12.1135 8.0492C10.9951 8.10231 10.0017 8.35847 9.18007 9.17695C8.35847 9.99543 8.10543 10.9888 8.0492 12.1103C7.9836 13.2662 7.9836 16.7307 8.0492 17.8865C8.10231 19.008 8.35847 20.0015 9.18007 20.8199C10.0017 21.6384 10.992 21.8946 12.1135 21.9508C13.2693 22.0164 16.7338 22.0164 17.8897 21.9508C19.0112 21.8977 20.0046 21.6415 20.823 20.8199C21.6415 20.0015 21.8977 19.008 21.9539 17.8865C22.0195 16.7307 22.0195 13.2693 21.9539 12.1135ZM20.4607 19.1267C20.217 19.739 19.7453 20.2108 19.1299 20.4575C18.2083 20.8231 16.0215 20.7387 15.0031 20.7387C13.9847 20.7387 11.7948 20.8199 10.8764 20.4575C10.2641 20.2139 9.79237 19.7422 9.54558 19.1267C9.18007 18.2052 9.26442 16.0184 9.26442 15C9.26442 13.9816 9.1832 11.7917 9.54558 10.8733C9.78924 10.261 10.261 9.78924 10.8764 9.54245C11.7979 9.17695 13.9847 9.2613 15.0031 9.2613C16.0215 9.2613 18.2114 9.18007 19.1299 9.54245C19.7422 9.78612 20.2139 10.2578 20.4607 10.8733C20.8262 11.7948 20.7418 13.9816 20.7418 15C20.7418 16.0184 20.8262 18.2083 20.4607 19.1267Z" fill="white"/>
</svg>
