<svg width="17" height="16" viewBox="0 0 17 16" fill="none" xmlns="http://www.w3.org/2000/svg">
<path d="M14.9548 0H1.23694C0.608371 0 0.0976562 0.517857 0.0976562 1.15357V14.8464C0.0976562 15.4821 0.608371 16 1.23694 16H14.9548C15.5834 16 16.0977 15.4821 16.0977 14.8464V1.15357C16.0977 0.517857 15.5834 0 14.9548 0ZM4.93337 13.7143H2.56194V6.07857H4.93694V13.7143H4.93337ZM3.74766 5.03571C2.98694 5.03571 2.37266 4.41786 2.37266 3.66071C2.37266 2.90357 2.98694 2.28571 3.74766 2.28571C4.5048 2.28571 5.12266 2.90357 5.12266 3.66071C5.12266 4.42143 4.50837 5.03571 3.74766 5.03571ZM13.8227 13.7143H11.4512V10C11.4512 9.11429 11.4334 7.975 10.2191 7.975C8.98337 7.975 8.79409 8.93929 8.79409 9.93571V13.7143H6.42266V6.07857H8.69766V7.12143H8.7298C9.04766 6.52143 9.82266 5.88929 10.9762 5.88929C13.3762 5.88929 13.8227 7.47143 13.8227 9.52857V13.7143Z" fill="#333333"/>
</svg>
