<svg width="30" height="30" viewBox="0 0 30 30" fill="none" xmlns="http://www.w3.org/2000/svg">
<circle cx="15" cy="15" r="15" fill="#0094FF"/>
<path d="M19.9031 10.0344C18.5938 8.72187 16.85 8 14.9969 8C11.1719 8 8.05937 11.1125 8.05937 14.9375C8.05937 16.1594 8.37813 17.3531 8.98438 18.4062L8 22L11.6781 21.0344C12.6906 21.5875 13.8313 21.8781 14.9938 21.8781H14.9969C18.8188 21.8781 22 18.7656 22 14.9406C22 13.0875 21.2125 11.3469 19.9031 10.0344ZM14.9969 20.7094C13.9594 20.7094 12.9437 20.4312 12.0594 19.9062L11.85 19.7812L9.66875 20.3531L10.25 18.225L10.1125 18.0063C9.53437 17.0875 9.23125 16.0281 9.23125 14.9375C9.23125 11.7594 11.8187 9.17188 15 9.17188C16.5406 9.17188 17.9875 9.77187 19.075 10.8625C20.1625 11.9531 20.8313 13.4 20.8281 14.9406C20.8281 18.1219 18.175 20.7094 14.9969 20.7094ZM18.1594 16.3906C17.9875 16.3031 17.1344 15.8844 16.975 15.8281C16.8156 15.7688 16.7 15.7406 16.5844 15.9156C16.4688 16.0906 16.1375 16.4781 16.0344 16.5969C15.9344 16.7125 15.8313 16.7281 15.6594 16.6406C14.6406 16.1313 13.9719 15.7312 13.3 14.5781C13.1219 14.2719 13.4781 14.2937 13.8094 13.6312C13.8656 13.5156 13.8375 13.4156 13.7937 13.3281C13.75 13.2406 13.4031 12.3875 13.2594 12.0406C13.1188 11.7031 12.975 11.75 12.8688 11.7438C12.7688 11.7375 12.6531 11.7375 12.5375 11.7375C12.4219 11.7375 12.2344 11.7812 12.075 11.9531C11.9156 12.1281 11.4688 12.5469 11.4688 13.4C11.4688 14.2531 12.0906 15.0781 12.175 15.1938C12.2625 15.3094 13.3969 17.0594 15.1375 17.8125C16.2375 18.2875 16.6687 18.3281 17.2188 18.2469C17.5531 18.1969 18.2437 17.8281 18.3875 17.4219C18.5312 17.0156 18.5312 16.6687 18.4875 16.5969C18.4469 16.5188 18.3313 16.475 18.1594 16.3906Z" fill="white"/>
</svg>
