<svg width="16" height="16" viewBox="0 0 16 16" fill="none" xmlns="http://www.w3.org/2000/svg">
<path d="M8.00358 3.89781C5.73291 3.89781 3.90137 5.72934 3.90137 8.00001C3.90137 10.2707 5.73291 12.1022 8.00358 12.1022C10.2743 12.1022 12.1058 10.2707 12.1058 8.00001C12.1058 5.72934 10.2743 3.89781 8.00358 3.89781ZM8.00358 10.667C6.53622 10.667 5.33662 9.47095 5.33662 8.00001C5.33662 6.52907 6.53265 5.33305 8.00358 5.33305C9.47452 5.33305 10.6705 6.52907 10.6705 8.00001C10.6705 9.47095 9.47095 10.667 8.00358 10.667ZM13.2304 3.73001C13.2304 4.26198 12.802 4.68683 12.2736 4.68683C11.7416 4.68683 11.3168 4.25841 11.3168 3.73001C11.3168 3.20161 11.7452 2.77318 12.2736 2.77318C12.802 2.77318 13.2304 3.20161 13.2304 3.73001ZM15.9474 4.70111C15.8867 3.4194 15.5939 2.28406 14.6549 1.34866C13.7195 0.413255 12.5842 0.120495 11.3025 0.0562313C9.9815 -0.0187438 6.0221 -0.0187438 4.70112 0.0562313C3.42296 0.116925 2.28763 0.409685 1.34866 1.34509C0.409684 2.28049 0.120495 3.41583 0.056231 4.69754C-0.0187437 6.01853 -0.0187437 9.97793 0.056231 11.2989C0.116925 12.5806 0.409684 13.7159 1.34866 14.6513C2.28763 15.5867 3.41939 15.8795 4.70112 15.9438C6.0221 16.0187 9.9815 16.0187 11.3025 15.9438C12.5842 15.8831 13.7195 15.5903 14.6549 14.6513C15.5903 13.7159 15.8831 12.5806 15.9474 11.2989C16.0223 9.97793 16.0223 6.0221 15.9474 4.70111ZM14.2408 12.7163C13.9623 13.416 13.4232 13.9551 12.7199 14.2372C11.6666 14.6549 9.16748 14.5585 8.00358 14.5585C6.83969 14.5585 4.33694 14.6513 3.28729 14.2372C2.58753 13.9587 2.04842 13.4196 1.76638 12.7163C1.34866 11.6631 1.44505 9.16391 1.44505 8.00001C1.44505 6.83611 1.35223 4.33338 1.76638 3.28373C2.04485 2.58396 2.58396 2.04485 3.28729 1.7628C4.34051 1.34509 6.83969 1.44148 8.00358 1.44148C9.16748 1.44148 11.6702 1.34866 12.7199 1.7628C13.4196 2.04128 13.9587 2.58039 14.2408 3.28373C14.6585 4.33695 14.5621 6.83611 14.5621 8.00001C14.5621 9.16391 14.6585 11.6666 14.2408 12.7163Z" fill="#333333"/>
</svg>
