<svg width="17" height="16" viewBox="0 0 17 16" fill="none" xmlns="http://www.w3.org/2000/svg">
<path d="M14.1729 2.325C12.6765 0.825 10.6837 0 8.5658 0C4.19437 0 0.637224 3.55714 0.637224 7.92857C0.637224 9.325 1.00151 10.6893 1.69437 11.8929L0.569366 16L4.77294 14.8964C5.93008 15.5286 7.23365 15.8607 8.56222 15.8607H8.5658C12.9337 15.8607 16.5694 12.3036 16.5694 7.93214C16.5694 5.81429 15.6694 3.825 14.1729 2.325ZM8.5658 14.525C7.38008 14.525 6.21937 14.2071 5.20865 13.6071L4.96937 13.4643L2.47651 14.1179L3.1408 11.6857L2.98365 11.4357C2.32294 10.3857 1.97651 9.175 1.97651 7.92857C1.97651 4.29643 4.93365 1.33929 8.56937 1.33929C10.3301 1.33929 11.9837 2.025 13.2265 3.27143C14.4694 4.51786 15.2337 6.17143 15.2301 7.93214C15.2301 11.5679 12.1979 14.525 8.5658 14.525ZM12.1801 9.58929C11.9837 9.48929 11.0087 9.01071 10.8265 8.94643C10.6444 8.87857 10.5122 8.84643 10.3801 9.04643C10.2479 9.24643 9.86937 9.68929 9.75151 9.825C9.63722 9.95714 9.51937 9.975 9.32294 9.875C8.15865 9.29286 7.39437 8.83571 6.62651 7.51786C6.42294 7.16786 6.83008 7.19286 7.20865 6.43571C7.27294 6.30357 7.2408 6.18929 7.1908 6.08929C7.1408 5.98929 6.74437 5.01429 6.58008 4.61786C6.41937 4.23214 6.25508 4.28571 6.13365 4.27857C6.01937 4.27143 5.88722 4.27143 5.75508 4.27143C5.62294 4.27143 5.40865 4.32143 5.22651 4.51786C5.04437 4.71786 4.53365 5.19643 4.53365 6.17143C4.53365 7.14643 5.24437 8.08929 5.3408 8.22143C5.4408 8.35357 6.73722 10.3536 8.72651 11.2143C9.98365 11.7571 10.4765 11.8036 11.1051 11.7107C11.4872 11.6536 12.2765 11.2321 12.4408 10.7679C12.6051 10.3036 12.6051 9.90714 12.5551 9.825C12.5087 9.73571 12.3765 9.68571 12.1801 9.58929Z" fill="#333333"/>
</svg>
