<svg width="17" height="16" viewBox="0 0 17 16" fill="none" xmlns="http://www.w3.org/2000/svg">
<path d="M8.10123 3.8978C5.83056 3.8978 3.99903 5.72933 3.99903 8C3.99903 10.2707 5.83056 12.1022 8.10123 12.1022C10.3719 12.1022 12.2034 10.2707 12.2034 8C12.2034 5.72933 10.3719 3.8978 8.10123 3.8978ZM8.10123 10.667C6.63386 10.667 5.43426 9.47094 5.43426 8C5.43426 6.52906 6.63029 5.33304 8.10123 5.33304C9.57216 5.33304 10.7682 6.52906 10.7682 8C10.7682 9.47094 9.56859 10.667 8.10123 10.667ZM13.328 3.73C13.328 4.26197 12.8996 4.68682 12.3712 4.68682C11.8393 4.68682 11.4144 4.2584 11.4144 3.73C11.4144 3.20161 11.8428 2.77318 12.3712 2.77318C12.8996 2.77318 13.328 3.20161 13.328 3.73ZM16.045 4.7011C15.9843 3.41939 15.6915 2.28406 14.7526 1.34866C13.8172 0.413254 12.6818 0.120495 11.4001 0.0562312C10.0791 -0.0187437 6.11975 -0.0187437 4.79876 0.0562312C3.52062 0.116925 2.38528 0.409684 1.44631 1.34509C0.507341 2.28049 0.218152 3.41582 0.153887 4.69753C0.0789125 6.01852 0.0789125 9.97791 0.153887 11.2989C0.214581 12.5806 0.507341 13.7159 1.44631 14.6513C2.38528 15.5867 3.51705 15.8795 4.79876 15.9438C6.11975 16.0187 10.0791 16.0187 11.4001 15.9438C12.6818 15.8831 13.8172 15.5903 14.7526 14.6513C15.688 13.7159 15.9807 12.5806 16.045 11.2989C16.12 9.97791 16.12 6.02209 16.045 4.7011ZM14.3384 12.7163C14.0599 13.416 13.5208 13.9551 12.8175 14.2372C11.7643 14.6549 9.26512 14.5585 8.10123 14.5585C6.93733 14.5585 4.4346 14.6513 3.38495 14.2372C2.68518 13.9587 2.14608 13.4196 1.86403 12.7163C1.44631 11.6631 1.54271 9.1639 1.54271 8C1.54271 6.8361 1.44988 4.33337 1.86403 3.28372C2.14251 2.58396 2.68161 2.04485 3.38495 1.7628C4.43817 1.34509 6.93733 1.44148 8.10123 1.44148C9.26512 1.44148 11.7679 1.34866 12.8175 1.7628C13.5173 2.04128 14.0564 2.58039 14.3384 3.28372C14.7561 4.33694 14.6597 6.8361 14.6597 8C14.6597 9.1639 14.7561 11.6666 14.3384 12.7163Z" fill="#333333"/>
</svg>
