<svg width="20" height="20" viewBox="0 0 20 20" fill="none" xmlns="http://www.w3.org/2000/svg">
<path d="M14.6565 12.8978H13.7303L13.402 12.5812C14.8089 10.9398 15.5359 8.7004 15.1372 6.3203C14.5862 3.06086 11.866 0.457994 8.58315 0.0593566C3.62364 -0.550323 -0.550323 3.62364 0.0593566 8.58315C0.457994 11.866 3.06086 14.5862 6.3203 15.1372C8.7004 15.5359 10.9398 14.8089 12.5812 13.402L12.8978 13.7303V14.6565L17.8808 19.6395C18.3615 20.1202 19.147 20.1202 19.6277 19.6395C20.1085 19.1588 20.1085 18.3732 19.6277 17.8925L14.6565 12.8978ZM7.62174 12.8978C4.70231 12.8978 2.34566 10.5412 2.34566 7.62174C2.34566 4.70231 4.70231 2.34566 7.62174 2.34566C10.5412 2.34566 12.8978 4.70231 12.8978 7.62174C12.8978 10.5412 10.5412 12.8978 7.62174 12.8978Z" fill="#333333"/>
</svg>
