<svg width="65" height="32" viewBox="0 0 65 32" fill="none" xmlns="http://www.w3.org/2000/svg">
<path d="M64.6842 17.6593C64.6842 24.8492 53.7658 23.3468 53.0246 21.0822C52.9471 20.8465 52.5684 18.5932 54.0371 19.5603C60.698 23.9469 65.9642 17.3279 59.609 14.7789C56.8613 13.6766 52.1073 11.8956 53.9 7.3319C55.6927 2.76861 63.5389 3.90991 63.8024 6.1042C64.2163 9.54566 61.8447 5.09512 57.747 6.37208C55.4259 7.09523 54.3611 10.446 58.5833 12.1464C61.3768 13.2716 64.6842 14.1217 64.6842 17.6593ZM31.3984 13.2385V0.421092C31.3984 0.354731 31.4188 0.29911 31.4604 0.243485C31.5018 0.188347 31.5638 0.14394 31.6531 0.105392C31.7356 0.0663565 31.8595 0.0385453 32.0112 0.0219552C32.1693 0.00536502 32.3626 0 32.6104 0C32.8373 0 33.0232 0.00536502 33.1818 0.0219552C33.3331 0.0385453 33.457 0.0663565 33.54 0.105392C33.6292 0.14394 33.6912 0.188347 33.7327 0.243485C33.7737 0.29911 33.7947 0.354731 33.7947 0.421092V7.35776C33.905 7.23578 34.0172 7.11622 34.1333 7.00006C35.828 5.30544 38.1696 4.25733 40.7557 4.25733C43.3418 4.25733 45.6835 5.30544 47.3781 7.00006C49.0728 8.69472 50.1209 11.0364 50.1209 13.6225C50.1209 16.2086 49.0728 18.5503 47.3781 20.2449C45.6835 21.9395 43.3418 22.9876 40.7557 22.9876C38.1696 22.9876 35.828 21.9395 34.1333 20.2449C32.4387 18.5503 31.3906 16.2086 31.3906 13.6225C31.3906 13.4941 31.393 13.3658 31.3984 13.2385ZM45.6527 8.72544C44.3997 7.47238 42.668 6.69709 40.7557 6.69709C38.8435 6.69709 37.1117 7.47238 35.8587 8.72544C34.6056 9.9785 33.8303 11.7102 33.8303 13.6225C33.8303 15.5347 34.6056 17.2665 35.8587 18.5195C37.1117 19.7725 38.8435 20.5479 40.7557 20.5479C42.668 20.5479 44.3997 19.7725 45.6527 18.5195C46.9058 17.2665 47.6812 15.5347 47.6812 13.6225C47.6812 11.7102 46.9058 9.9785 45.6527 8.72544ZM5.86221 1.66633C6.19011 1.66633 6.4887 1.79466 6.7049 2.00009C6.92346 2.20893 7.05914 2.49731 7.05914 2.81545C7.05914 3.13359 6.92346 3.42294 6.7049 3.6308C6.4887 3.8372 6.19011 3.96505 5.86221 3.96505C5.53432 3.96505 5.23567 3.8372 5.01951 3.6308C4.80091 3.42294 4.66527 3.13359 4.66527 2.81545C4.66527 2.49731 4.80091 2.20893 5.01951 2.00009C5.23567 1.79466 5.53432 1.66633 5.86221 1.66633ZM7.06451 25.1692C7.06451 26.4706 6.97472 27.5172 6.7888 28.316C6.60973 29.108 6.32088 29.7759 5.92125 30.3268C5.52895 30.8777 5.00538 31.2973 4.37203 31.5799C3.73184 31.8624 2.94675 32 2.01721 32C1.66637 32 1.36333 31.979 1.10131 31.9312C0.83977 31.8829 0.63336 31.8278 0.481608 31.7795C0.337176 31.7243 0.233751 31.6555 0.171782 31.5867C0.109812 31.511 0.068823 31.4281 0.0478416 31.3388C0.0273478 31.2564 0.013693 31.1666 0.00686176 31.0909C3.04967e-05 31.0085 0 30.9119 0 30.8016C0 30.6298 0.00685792 30.4781 0.0273517 30.3473C0.0478454 30.2234 0.0824646 30.1131 0.12394 30.0374C0.164927 29.955 0.213263 29.8931 0.275232 29.8516C0.33037 29.8101 0.405977 29.7896 0.481608 29.7896C0.564559 29.7896 0.729491 29.8101 0.97737 29.8447C1.23256 29.8789 1.5351 29.8931 1.90008 29.8931C2.39583 29.8931 2.8228 29.8169 3.17412 29.6725C3.52545 29.5212 3.80746 29.2802 4.03485 28.9357C4.25491 28.5985 4.41348 28.1511 4.51693 27.6002C4.61989 27.0561 4.66818 26.2437 4.66818 25.1692V6.00028C4.66818 5.91781 4.6887 5.84901 4.73017 5.77972C4.77165 5.71092 4.83363 5.65578 4.92292 5.60796C5.00538 5.55965 5.12931 5.52502 5.28106 5.50452C5.43916 5.48403 5.6324 5.4772 5.88028 5.4772C6.10717 5.4772 6.29308 5.48403 6.45165 5.50452C6.60294 5.52502 6.72685 5.55965 6.80979 5.60796C6.89907 5.65578 6.96109 5.71092 7.00256 5.77972C7.04352 5.84901 7.06451 5.91781 7.06451 6.00028V25.1692ZM19.2314 4.25733C21.8175 4.25733 24.1592 5.30544 25.8538 7.00006C27.5485 8.69472 28.5966 11.0364 28.5966 13.6225C28.5966 16.2086 27.5485 18.5503 25.8538 20.2449C24.1592 21.9395 21.8175 22.9876 19.2314 22.9876C16.6453 22.9876 14.3037 21.9395 12.609 20.2449C10.9144 18.5503 9.8663 16.2086 9.8663 13.6225C9.8663 11.0364 10.9144 8.69472 12.609 7.00006C14.3037 5.30544 16.6453 4.25733 19.2314 4.25733ZM24.1284 8.72544C22.8754 7.47238 21.1437 6.69709 19.2314 6.69709C17.3192 6.69709 15.5875 7.47238 14.3344 8.72544C13.0813 9.9785 12.306 11.7102 12.306 13.6225C12.306 15.5347 13.0813 17.2665 14.3344 18.5195C15.5875 19.7725 17.3192 20.5479 19.2314 20.5479C21.1437 20.5479 22.8754 19.7725 24.1284 18.5195C25.3815 17.2665 26.1569 15.5347 26.1569 13.6225C26.1569 11.7102 25.3815 9.9785 24.1284 8.72544Z" fill="#0094FF"/>
</svg>
