<svg width="102" height="50" viewBox="0 0 102 50" fill="none" xmlns="http://www.w3.org/2000/svg">
<path d="M101.069 27.5926C101.069 38.8268 84.0091 36.4793 82.851 32.9409C82.7298 32.5727 82.1381 29.0518 84.433 30.563C94.8407 37.4171 103.069 27.0749 93.139 23.092C88.8458 21.3697 81.4176 18.5869 84.2187 11.4561C87.0198 4.32595 99.2795 6.10923 99.6912 9.53781C100.338 14.9151 96.6324 7.96113 90.2297 9.95638C86.6029 11.0863 84.9392 16.3218 91.5364 18.9788C95.9013 20.7369 101.069 22.0651 101.069 27.5926ZM49.06 20.6851V0.657956C49.06 0.554267 49.0919 0.46736 49.1568 0.380445C49.2216 0.294292 49.3184 0.224906 49.4579 0.164675C49.5868 0.103682 49.7804 0.0602271 50.0175 0.034305C50.2645 0.00838285 50.5665 0 50.9538 0C51.3083 0 51.5988 0.00838285 51.8466 0.034305C52.0829 0.0602271 52.2766 0.103682 52.4062 0.164675C52.5457 0.224906 52.6425 0.294292 52.7073 0.380445C52.7714 0.46736 52.8042 0.554267 52.8042 0.657956V11.4965C52.9765 11.3059 53.1518 11.1191 53.3333 10.9376C55.9812 8.28975 59.64 6.65208 63.6808 6.65208C67.7216 6.65208 71.3805 8.28975 74.0283 10.9376C76.6762 13.5855 78.3139 17.2443 78.3139 21.2851C78.3139 25.3259 76.6762 28.9848 74.0283 31.6326C71.3805 34.2805 67.7216 35.9182 63.6808 35.9182C59.64 35.9182 55.9812 34.2805 53.3333 31.6326C50.6854 28.9848 49.0478 25.3259 49.0478 21.2851C49.0478 21.0846 49.0516 20.8841 49.06 20.6851ZM71.3324 13.6335C69.3745 11.6756 66.6687 10.4642 63.6808 10.4642C60.6929 10.4642 57.9871 11.6756 56.0292 13.6335C54.0713 15.5914 52.8598 18.2972 52.8598 21.2851C52.8598 24.273 54.0713 26.9789 56.0292 28.9367C57.9871 30.8946 60.6929 32.1061 63.6808 32.1061C66.6687 32.1061 69.3745 30.8946 71.3324 28.9367C73.2903 26.9789 74.5018 24.273 74.5018 21.2851C74.5018 18.2972 73.2903 15.5914 71.3324 13.6335ZM9.15971 2.60364C9.67205 2.60364 10.1386 2.80416 10.4764 3.12514C10.8179 3.45146 11.0299 3.90204 11.0299 4.39914C11.0299 4.89623 10.8179 5.34834 10.4764 5.67313C10.1386 5.99563 9.67205 6.19539 9.15971 6.19539C8.64737 6.19539 8.18073 5.99563 7.84298 5.67313C7.50142 5.34834 7.28948 4.89623 7.28948 4.39914C7.28948 3.90204 7.50142 3.45146 7.84298 3.12514C8.18073 2.80416 8.64737 2.60364 9.15971 2.60364ZM11.0383 39.3269C11.0383 41.3603 10.898 42.9957 10.6075 44.2438C10.3277 45.4812 9.87638 46.5249 9.25196 47.3857C8.63898 48.2464 7.82091 48.9021 6.83129 49.3436C5.831 49.785 4.60429 50 3.15189 50C2.60371 50 2.13021 49.9672 1.7208 49.8925C1.31214 49.817 0.989625 49.7309 0.752513 49.6554C0.526838 49.5692 0.365236 49.4617 0.268409 49.3542C0.171582 49.236 0.107536 49.1064 0.0747525 48.9669C0.042731 48.8381 0.0213953 48.6978 0.0107215 48.5796C4.76511e-05 48.4508 0 48.2998 0 48.1275C0 47.8591 0.0107155 47.622 0.042737 47.4177C0.0747584 47.224 0.128851 47.0517 0.193657 46.9335C0.257699 46.8047 0.333223 46.7079 0.43005 46.6431C0.516203 46.5783 0.634339 46.5463 0.752513 46.5463C0.882124 46.5463 1.13983 46.5783 1.52714 46.6324C1.92588 46.6858 2.39859 46.7079 2.96888 46.7079C3.74349 46.7079 4.41063 46.5889 4.95957 46.3633C5.50851 46.1269 5.94916 45.7503 6.30445 45.212C6.6483 44.6852 6.89607 43.9861 7.05771 43.1253C7.21858 42.2752 7.29403 41.0058 7.29403 39.3269V9.37543C7.29403 9.24658 7.32609 9.13908 7.39089 9.03081C7.4557 8.92331 7.55254 8.83716 7.69206 8.76244C7.82091 8.68696 8.01455 8.63284 8.25166 8.60082C8.49868 8.5688 8.80062 8.55812 9.18793 8.55812C9.54245 8.55812 9.83293 8.5688 10.0807 8.60082C10.3171 8.63284 10.5107 8.68696 10.6403 8.76244C10.7798 8.83716 10.8767 8.92331 10.9415 9.03081C11.0055 9.13908 11.0383 9.24658 11.0383 9.37543V39.3269ZM30.0491 6.65208C34.0899 6.65208 37.7488 8.28975 40.3966 10.9376C43.0445 13.5855 44.6822 17.2443 44.6822 21.2851C44.6822 25.3259 43.0445 28.9848 40.3966 31.6326C37.7488 34.2805 34.0899 35.9182 30.0491 35.9182C26.0083 35.9182 22.3495 34.2805 19.7016 31.6326C17.0537 28.9848 15.4161 25.3259 15.4161 21.2851C15.4161 17.2443 17.0537 13.5855 19.7016 10.9376C22.3495 8.28975 26.0083 6.65208 30.0491 6.65208ZM37.7007 13.6335C35.7428 11.6756 33.037 10.4642 30.0491 10.4642C27.0612 10.4642 24.3554 11.6756 22.3975 13.6335C20.4396 15.5914 19.2281 18.2972 19.2281 21.2851C19.2281 24.273 20.4396 26.9789 22.3975 28.9367C24.3554 30.8946 27.0612 32.1061 30.0491 32.1061C33.037 32.1061 35.7428 30.8946 37.7007 28.9367C39.6586 26.9789 40.8701 24.273 40.8701 21.2851C40.8701 18.2972 39.6586 15.5914 37.7007 13.6335Z" fill="#333333"/>
</svg>
